<mxfile host="app.diagrams.net" modified="2021-03-17T07:48:11.272Z" agent="5.0 (Macintosh; Intel Mac OS X 10_15_6) AppleWebKit/537.36 (KHTML, like Gecko) Chrome/89.0.4389.90 Safari/537.36" etag="jvtVu3Abjng2PGyUb0-5" version="14.4.8" type="github">
  <diagram id="cTCjcHN-rwVxs7hEuexl" name="Page-1">
    <mxGraphModel dx="1426" dy="704" grid="1" gridSize="10" guides="1" tooltips="1" connect="1" arrows="1" fold="1" page="1" pageScale="1" pageWidth="827" pageHeight="1169" math="0" shadow="0">
      <root>
        <mxCell id="0" />
        <mxCell id="1" parent="0" />
        <mxCell id="lB1xqUMFaD_04WnO8Ldx-1" value="SDK" style="rounded=1;whiteSpace=wrap;html=1;" vertex="1" parent="1">
          <mxGeometry x="20" y="40" width="120" height="60" as="geometry" />
        </mxCell>
        <mxCell id="lB1xqUMFaD_04WnO8Ldx-2" value="拿token&lt;br&gt;建立连接" style="rounded=0;whiteSpace=wrap;html=1;" vertex="1" parent="1">
          <mxGeometry x="20" y="150" width="120" height="60" as="geometry" />
        </mxCell>
        <mxCell id="lB1xqUMFaD_04WnO8Ldx-3" value="server" style="rounded=1;whiteSpace=wrap;html=1;" vertex="1" parent="1">
          <mxGeometry x="390" y="40" width="120" height="60" as="geometry" />
        </mxCell>
        <mxCell id="lB1xqUMFaD_04WnO8Ldx-4" value="&amp;nbsp;解析token&lt;br&gt;验证&lt;br&gt;获取UID" style="rounded=0;whiteSpace=wrap;html=1;" vertex="1" parent="1">
          <mxGeometry x="390" y="150" width="120" height="60" as="geometry" />
        </mxCell>
        <mxCell id="lB1xqUMFaD_04WnO8Ldx-5" value="FD&lt;br&gt;bind&lt;br&gt;UID" style="rounded=0;whiteSpace=wrap;html=1;" vertex="1" parent="1">
          <mxGeometry x="390" y="250" width="120" height="60" as="geometry" />
        </mxCell>
        <mxCell id="lB1xqUMFaD_04WnO8Ldx-6" value="heart&lt;br&gt;beat" style="ellipse;whiteSpace=wrap;html=1;aspect=fixed;" vertex="1" parent="1">
          <mxGeometry x="230" y="150" width="80" height="80" as="geometry" />
        </mxCell>
        <mxCell id="lB1xqUMFaD_04WnO8Ldx-7" value="发送消息" style="rounded=1;whiteSpace=wrap;html=1;" vertex="1" parent="1">
          <mxGeometry x="30" y="400" width="120" height="60" as="geometry" />
        </mxCell>
        <mxCell id="lB1xqUMFaD_04WnO8Ldx-8" value="选定协议号" style="rounded=0;whiteSpace=wrap;html=1;" vertex="1" parent="1">
          <mxGeometry x="30" y="510" width="120" height="60" as="geometry" />
        </mxCell>
        <mxCell id="lB1xqUMFaD_04WnO8Ldx-9" value="protobuff&lt;br&gt;压缩" style="rounded=0;whiteSpace=wrap;html=1;" vertex="1" parent="1">
          <mxGeometry x="30" y="620" width="120" height="60" as="geometry" />
        </mxCell>
        <mxCell id="lB1xqUMFaD_04WnO8Ldx-10" value="接收消息" style="rounded=1;whiteSpace=wrap;html=1;" vertex="1" parent="1">
          <mxGeometry x="400" y="400" width="120" height="60" as="geometry" />
        </mxCell>
        <mxCell id="lB1xqUMFaD_04WnO8Ldx-11" value="匹配协议号" style="rounded=0;whiteSpace=wrap;html=1;" vertex="1" parent="1">
          <mxGeometry x="400" y="510" width="120" height="60" as="geometry" />
        </mxCell>
        <mxCell id="lB1xqUMFaD_04WnO8Ldx-12" value="protobuff&lt;br&gt;&amp;nbsp;解缩" style="rounded=0;whiteSpace=wrap;html=1;" vertex="1" parent="1">
          <mxGeometry x="400" y="620" width="120" height="60" as="geometry" />
        </mxCell>
        <mxCell id="lB1xqUMFaD_04WnO8Ldx-13" value="分发到&lt;br&gt;控制器" style="rounded=1;whiteSpace=wrap;html=1;" vertex="1" parent="1">
          <mxGeometry x="400" y="730" width="120" height="60" as="geometry" />
        </mxCell>
        <mxCell id="lB1xqUMFaD_04WnO8Ldx-14" value="产生一个广播&lt;br&gt;动作" style="rounded=0;whiteSpace=wrap;html=1;" vertex="1" parent="1">
          <mxGeometry x="400" y="840" width="120" height="60" as="geometry" />
        </mxCell>
        <mxCell id="lB1xqUMFaD_04WnO8Ldx-15" value="选定接收列表&lt;br&gt;uidList" style="rounded=0;whiteSpace=wrap;html=1;" vertex="1" parent="1">
          <mxGeometry x="400" y="930" width="120" height="60" as="geometry" />
        </mxCell>
        <mxCell id="lB1xqUMFaD_04WnO8Ldx-16" value="&amp;nbsp;创建消息唯一ID&lt;br&gt;开始分发" style="rounded=0;whiteSpace=wrap;html=1;" vertex="1" parent="1">
          <mxGeometry x="400" y="1030" width="120" height="60" as="geometry" />
        </mxCell>
      </root>
    </mxGraphModel>
  </diagram>
</mxfile>
